<svg width="149" height="44" viewBox="0 0 149 44" fill="none" xmlns="http://www.w3.org/2000/svg">
<g clip-path="url(#clip0_694_296)">
<path opacity="0.964" fill-rule="evenodd" clip-rule="evenodd" d="M67.0333 0.240723C68.0367 0.240723 69.0401 0.240723 70.0435 0.240723C76.0697 1.30721 79.6533 4.86211 80.7942 10.9054C81.2979 13.9403 81.0828 16.9218 80.1492 19.85C78.9673 23.1768 76.7741 25.5706 73.5697 27.0314C75.6625 27.0601 77.7554 27.0888 79.8481 27.1174C80.8467 29.5733 81.8215 32.0388 82.7723 34.5139C82.5935 34.5834 82.4215 34.5691 82.2563 34.4709C80.5503 30.8032 77.6835 28.6961 73.6557 28.1495C71.9356 28.1209 70.2155 28.0921 68.4954 28.0635C61.8772 27.6382 57.8493 24.1836 56.4116 17.6998C55.7701 14.2613 56.0568 10.907 57.2717 7.6372C59.2047 3.42466 62.4586 0.959171 67.0333 0.240723ZM69.4415 1.4448C71.9205 1.27232 73.7983 2.24705 75.0748 4.36899C76.2191 6.59251 76.7495 8.95764 76.6659 11.4644C76.7187 15.187 75.8443 18.6702 74.0428 21.9141C72.9258 23.8051 71.3921 25.2528 69.4415 26.2574C65.6258 27.5534 62.9452 26.3351 61.4 22.6022C60.5921 20.2002 60.3054 17.7347 60.5399 15.2057C60.7289 11.4847 61.8757 8.10188 63.9801 5.05703C65.3764 3.19201 67.1968 1.98793 69.4415 1.4448Z" fill="#FEFFFE"/>
<path opacity="0.969" fill-rule="evenodd" clip-rule="evenodd" d="M0.0351562 1.27295C3.38972 1.49667 6.74393 1.49667 10.0978 1.27295C10.0978 1.47363 10.0978 1.67431 10.0978 1.87499C7.99267 1.90175 6.88894 2.96249 6.78659 5.05719C6.68298 7.57896 6.63998 10.1018 6.65758 12.6257C10.8719 12.6257 15.0861 12.6257 19.3004 12.6257C19.3259 10.0442 19.2829 7.46406 19.1714 4.88518C18.9664 2.80376 17.8054 1.80037 15.6882 1.87499C15.6882 1.67431 15.6882 1.47363 15.6882 1.27295C19.0715 1.49573 22.4544 1.49573 25.8368 1.27295C25.8368 1.47363 25.8368 1.67431 25.8368 1.87499C25.0818 1.91324 24.365 2.09959 23.6867 2.43402C23.0763 2.89395 22.7179 3.51032 22.6116 4.28314C22.5189 5.11179 22.4615 5.94317 22.4396 6.7773C22.4252 8.74109 22.411 10.7049 22.3966 12.6687C22.3856 14.8698 22.4286 17.063 22.5256 19.2481C21.1925 20.8106 19.8594 22.3729 18.5263 23.9354C18.469 23.9928 18.4117 23.9928 18.3543 23.9354C18.8433 23.2292 19.1156 22.4408 19.1714 21.5703C19.2913 19.0493 19.3343 16.5265 19.3004 14.0018C15.0861 14.0018 10.8719 14.0018 6.65758 14.0018C6.63218 17.2996 6.67519 20.5965 6.78659 23.8924C6.9129 26.068 8.07397 27.1287 10.2698 27.0746C10.2698 27.2753 10.2698 27.476 10.2698 27.6766C6.85822 27.4482 3.44668 27.4482 0.0351562 27.6766C0.0351562 27.476 0.0351562 27.2753 0.0351562 27.0746C1.13412 27.0958 2.06584 26.7231 2.83034 25.9565C3.03967 25.6731 3.18302 25.3578 3.26036 25.0105C3.42678 24.2463 3.51279 23.4723 3.51838 22.6883C3.57572 17.2126 3.57572 11.737 3.51838 6.26127C3.55971 5.21907 3.38769 4.21568 3.00235 3.25108C2.68663 2.73482 2.24226 2.37647 1.66926 2.17601C1.13481 2.01464 0.590105 1.91429 0.0351562 1.87499C0.0351562 1.67431 0.0351562 1.47363 0.0351562 1.27295Z" fill="#FEFFFE"/>
<path opacity="0.956" fill-rule="evenodd" clip-rule="evenodd" d="M45.0157 3.93896C45.159 3.93896 45.3023 3.93896 45.4457 3.93896C45.4313 11.2495 45.4457 18.56 45.4887 25.8704C45.6633 26.6753 46.165 27.1197 46.9938 27.2035C47.4495 27.2834 47.9083 27.3408 48.3699 27.3755C48.4456 27.4921 48.4743 27.6211 48.4559 27.7625C45.3313 27.4206 42.2064 27.4206 39.0813 27.7625C39.0578 27.5947 39.1151 27.4657 39.2533 27.3755C40.0644 27.3598 40.8385 27.1878 41.5755 26.8594C41.7867 26.6523 41.9443 26.4087 42.0485 26.1284C42.1475 23.0355 42.1905 19.9393 42.1775 16.8398C42.1901 13.7122 42.1471 10.5873 42.0485 7.46519C41.8266 6.83105 41.3823 6.47269 40.7154 6.39012C40.1712 6.33413 39.6266 6.29113 39.0813 6.26111C39.0813 6.14644 39.0813 6.03176 39.0813 5.91709C41.2701 5.85643 43.2483 5.19705 45.0157 3.93896Z" fill="#FEFFFE"/>
<path opacity="0.947" fill-rule="evenodd" clip-rule="evenodd" d="M106.682 11.1632C109.186 11.0753 111.265 11.964 112.918 13.8293C112.991 13.9592 113.062 14.0882 113.133 14.2164C112.924 14.5693 112.679 14.899 112.402 15.2054C110.905 16.7599 109.357 18.2506 107.757 19.6777C107.638 19.582 107.537 19.4673 107.456 19.3337C108.228 18.5363 108.873 17.6475 109.391 16.6675C109.964 15.3686 109.907 14.1071 109.219 12.8833C108.334 11.9133 107.289 11.6983 106.08 12.2382C104.54 13.1503 103.551 14.4834 103.113 16.2375C102.293 19.0896 102.409 21.8991 103.457 24.666C104.329 26.557 105.777 27.2881 107.8 26.8592C109.344 26.0105 110.118 24.6917 110.122 22.9029C110.109 22.4798 110.052 22.0641 109.95 21.6558C112.157 21.6684 113.06 22.7577 112.66 24.924C112.105 26.1668 111.173 26.9839 109.864 27.3752C107.712 28.0483 105.59 27.9623 103.5 27.1172C101.273 25.8907 99.9403 24.013 99.5008 21.4838C98.9839 18.5923 99.6143 15.9835 101.393 13.6573C102.829 12.1232 104.592 11.2917 106.682 11.1632Z" fill="#FEFFFE"/>
<path opacity="0.951" fill-rule="evenodd" clip-rule="evenodd" d="M87.3306 11.2492C87.4743 11.2492 87.617 11.2492 87.7607 11.2492C87.6119 15.3481 87.4682 19.4478 87.3306 23.548C87.285 24.4763 87.4433 25.365 87.8037 26.2142C88.2879 26.8334 88.9045 27.0198 89.6528 26.7732C90.6616 26.2805 91.4503 25.5494 92.0179 24.5801C93.296 22.1894 93.855 19.638 93.695 16.9256C93.6804 16.2662 93.6667 15.6068 93.652 14.9474C93.6021 14.2873 93.2727 13.843 92.663 13.6144C92.0669 13.4992 91.4649 13.4562 90.8569 13.4853C90.8569 13.3707 90.8569 13.256 90.8569 13.1413C92.847 13.0466 94.6531 12.4302 96.2752 11.2922C96.4154 11.2497 96.559 11.2354 96.7052 11.2492C96.6906 16.1516 96.7052 21.0539 96.7482 25.9561C96.9254 26.6493 97.37 27.0363 98.0813 27.1172C98.5389 27.1601 98.9981 27.1745 99.4574 27.1602C99.4574 27.2749 99.4574 27.3896 99.4574 27.5042C97.53 27.4595 95.6087 27.5455 93.695 27.7623C93.7097 26.0993 93.695 24.4364 93.652 22.7739C93.0681 24.8465 91.8502 26.409 89.9968 27.4612C86.8129 28.4001 84.9634 27.239 84.4494 23.978C84.4256 21.08 84.4973 18.1844 84.6645 15.2915C84.701 14.6347 84.4717 14.1043 83.9764 13.7004C83.3316 13.5112 82.6723 13.4396 81.9983 13.4853C81.9748 13.3175 82.0321 13.1885 82.1703 13.0983C84.0899 12.9987 85.81 12.3823 87.3306 11.2492Z" fill="#FEFFFE"/>
<path opacity="0.953" fill-rule="evenodd" clip-rule="evenodd" d="M135.751 11.4214C135.895 11.4214 136.038 11.4214 136.181 11.4214C136.167 13.4284 136.181 15.4352 136.224 17.4418C136.715 15.7003 137.646 14.2526 139.02 13.0985C140.115 12.3518 141.319 12.0938 142.632 12.3244C143.968 12.7147 144.814 13.5892 145.169 14.9476C145.349 15.5956 145.463 16.2549 145.513 16.9257C145.486 19.9655 145.43 23.0044 145.341 26.0423C145.493 26.7149 145.88 26.9299 146.502 26.6874C146.702 26.4463 146.845 26.1739 146.932 25.8703C147.003 25.7941 147.089 25.7655 147.19 25.7843C147.099 27.2224 146.325 27.9677 144.868 28.0204C143.34 27.9979 142.523 27.2239 142.417 25.6983C142.4 22.8727 142.471 20.0489 142.632 17.2268C142.597 16.5205 142.524 15.8181 142.417 15.1196C141.822 13.0676 140.69 12.7092 139.02 14.0446C137.969 15.128 137.238 16.4038 136.826 17.8718C136.515 18.8531 136.315 19.8565 136.224 20.882C136.167 22.5161 136.167 24.1502 136.224 25.7843C136.237 26.3415 136.482 26.7572 136.955 27.0314C137.628 27.2437 138.316 27.3727 139.02 27.4184C139.02 27.5331 139.02 27.6478 139.02 27.7624C136.125 27.5331 133.229 27.5331 130.333 27.7624C130.333 27.6478 130.333 27.5331 130.333 27.4184C131.037 27.3727 131.725 27.2437 132.397 27.0314C132.67 26.8737 132.885 26.6587 133.042 26.3863C133.141 24.4123 133.184 22.4342 133.171 20.452C133.157 18.5885 133.143 16.7251 133.128 14.8616C133.028 14.1879 132.641 13.8009 131.967 13.7005C131.426 13.6053 130.882 13.5623 130.333 13.5715C130.333 13.4569 130.333 13.3421 130.333 13.2275C132.341 13.1889 134.147 12.5868 135.751 11.4214Z" fill="#FEFFFE"/>
<path opacity="0.943" fill-rule="evenodd" clip-rule="evenodd" d="M122.077 11.5074C124.792 11.3607 126.971 12.3497 128.613 14.4746C128.231 15.0004 127.815 15.5021 127.366 15.9797C126.018 17.2697 124.671 18.5598 123.324 19.8499C123.153 19.741 123.067 19.5977 123.066 19.4199C123.897 18.5612 124.556 17.5865 125.044 16.4957C125.4 15.3668 125.314 14.2774 124.786 13.2275C123.764 12.1492 122.603 11.9916 121.303 12.7545C120.222 13.492 119.462 14.481 119.024 15.7216C118.265 18.0276 118.093 20.3785 118.507 22.7741C118.734 23.9137 119.192 24.9457 119.884 25.8703C121.132 27.1297 122.522 27.3161 124.055 26.4293C125.414 25.1185 125.901 23.5274 125.517 21.656C128.133 21.991 128.864 23.3384 127.71 25.6983C126.749 26.803 125.53 27.4481 124.055 27.6334C121.218 28.1471 118.825 27.3588 116.873 25.2683C115.112 22.7145 114.653 19.9336 115.497 16.9257C116.541 13.7042 118.735 11.8981 122.077 11.5074Z" fill="#FEFFFE"/>
<path opacity="0.942" fill-rule="evenodd" clip-rule="evenodd" d="M32.2874 11.6793C34.8751 11.5603 36.9393 12.5207 38.4798 14.5604C38.184 14.9999 37.8544 15.4156 37.4907 15.8075C36.1668 17.189 34.7907 18.5078 33.3625 19.7638C33.2042 19.6206 33.1469 19.4486 33.1905 19.2478C34.4313 18.1277 35.1338 16.7373 35.2976 15.0765C35.1774 13.0255 34.1167 12.1942 32.1154 12.5823C30.6911 13.2342 29.7307 14.3093 29.2342 15.8075C28.3783 18.3337 28.2923 20.8852 28.9762 23.462C29.2923 24.4943 29.8514 25.3687 30.6533 26.0852C32.5944 27.13 34.0995 26.6857 35.1686 24.7521C35.6095 23.6908 35.7099 22.6014 35.4696 21.4839C37.5601 21.5799 38.4058 22.6406 38.0068 24.6661C37.5404 25.7388 36.7521 26.4699 35.6416 26.8592C34.0657 27.3477 32.4603 27.4623 30.8253 27.2033C28.2137 26.5125 26.5366 24.8641 25.794 22.2579C25.0931 19.616 25.4371 17.1219 26.8261 14.7755C28.1591 12.8833 29.9796 11.8513 32.2874 11.6793Z" fill="#FEFFFE"/>
<path opacity="0.925" fill-rule="evenodd" clip-rule="evenodd" d="M89.5664 37.5669C89.7668 37.5669 89.9681 37.5669 90.1684 37.5669C90.1684 39.1724 90.1684 40.7777 90.1684 42.3832C89.9681 42.3832 89.7668 42.3832 89.5664 42.3832C89.5664 40.7777 89.5664 39.1724 89.5664 37.5669Z" fill="#FEFFFE"/>
<path opacity="0.871" fill-rule="evenodd" clip-rule="evenodd" d="M1.58292 37.6532C2.50257 37.4855 3.16194 37.8153 3.56104 38.6423C3.44349 38.8315 3.27148 38.9605 3.04501 39.0293C2.6081 38.2731 2.04907 38.1584 1.3679 38.6853C1.27132 38.9825 1.34299 39.2263 1.58292 39.4164C2.07028 39.617 2.55764 39.8177 3.04501 40.0184C3.71969 40.4951 3.87736 41.1115 3.51804 41.8675C2.9195 42.4646 2.21712 42.6223 1.4109 42.3405C0.96396 42.1373 0.648609 41.8076 0.464844 41.3515C0.849388 40.8122 1.12174 40.8409 1.2819 41.4375C1.64082 41.7549 2.05651 41.8553 2.52898 41.7385C3.13183 41.448 3.18916 41.0752 2.70099 40.6204C2.14928 40.4078 1.60458 40.1785 1.06688 39.9324C0.501303 39.2746 0.501303 38.6152 1.06688 37.9543C1.25845 37.8733 1.43046 37.773 1.58292 37.6532Z" fill="#FEFFFE"/>
<path opacity="0.788" fill-rule="evenodd" clip-rule="evenodd" d="M50.1759 37.6533C50.7179 37.7196 50.8612 37.9919 50.6059 38.4704C49.8775 38.516 49.7342 38.2437 50.1759 37.6533Z" fill="#FEFFFE"/>
<path opacity="0.876" fill-rule="evenodd" clip-rule="evenodd" d="M117.346 37.6531C118.406 37.4987 119.208 37.8713 119.754 38.7711C119.652 38.9589 119.494 39.0735 119.281 39.1151C118.556 38.2439 117.71 38.1149 116.744 38.7281C115.993 39.7469 116.079 40.6929 117.002 41.5663C117.91 41.9606 118.671 41.7743 119.281 41.0073C119.674 41.079 119.789 41.2797 119.625 41.6093C118.778 42.5272 117.789 42.7135 116.658 42.1683C115.794 41.5427 115.435 40.697 115.583 39.6312C115.769 38.6005 116.356 37.9411 117.346 37.6531Z" fill="#FEFFFE"/>
<path opacity="0.831" fill-rule="evenodd" clip-rule="evenodd" d="M137.386 37.6533C137.924 37.7373 138.039 38.0097 137.73 38.4704C137.214 38.5558 137.027 38.3408 137.171 37.8253C137.256 37.7767 137.328 37.7193 137.386 37.6533Z" fill="#FEFFFE"/>
<path opacity="0.885" fill-rule="evenodd" clip-rule="evenodd" d="M78.9023 37.7393C79.103 37.7393 79.3037 37.7393 79.5044 37.7393C79.4901 38.3133 79.5044 38.8867 79.5474 39.4594C80.4005 38.7322 81.2032 38.7895 81.9555 39.6314C82.4745 40.6426 82.3168 41.517 81.4825 42.2545C80.7606 42.611 80.1155 42.5106 79.5474 41.9535C79.5049 42.0941 79.4906 42.2374 79.5044 42.3836C79.3037 42.3836 79.103 42.3836 78.9023 42.3836C78.9023 40.8355 78.9023 39.2874 78.9023 37.7393ZM80.1924 39.6314C81.4255 39.6169 81.8412 40.1903 81.4395 41.3515C80.8661 42.0395 80.2928 42.0395 79.7194 41.3515C79.3789 40.6389 79.5365 40.0655 80.1924 39.6314Z" fill="#FEFFFE"/>
<path opacity="0.852" fill-rule="evenodd" clip-rule="evenodd" d="M126.979 37.7393C127.209 37.7393 127.438 37.7393 127.668 37.7393C127.653 38.2561 127.668 38.7721 127.711 39.2874C128.288 38.848 128.875 38.8337 129.474 39.2444C129.535 39.3523 129.606 39.4526 129.689 39.5454C129.812 40.4847 129.855 41.4308 129.818 42.3836C129.617 42.3836 129.416 42.3836 129.216 42.3836C129.23 41.6376 129.216 40.8922 129.173 40.1474C129.076 39.7934 128.848 39.5928 128.485 39.5454C128.126 39.6169 127.868 39.8176 127.711 40.1474C127.668 40.8922 127.653 41.6376 127.668 42.3836C127.438 42.3836 127.209 42.3836 126.979 42.3836C126.979 40.8355 126.979 39.2874 126.979 37.7393Z" fill="#FEFFFE"/>
<path opacity="0.857" fill-rule="evenodd" clip-rule="evenodd" d="M31.4267 38.083C31.5112 38.3808 31.5398 38.6961 31.5127 39.0291C31.7708 39.0291 32.0288 39.0291 32.2868 39.0291C32.2868 39.2297 32.2868 39.4305 32.2868 39.6311C32.0288 39.6311 31.7708 39.6311 31.5127 39.6311C31.4985 40.3198 31.5127 41.0078 31.5557 41.6952C31.7896 41.7764 32.0332 41.8051 32.2868 41.7812C32.2868 41.9819 32.2868 42.1826 32.2868 42.3833C31.9701 42.3975 31.6548 42.3832 31.3407 42.3403C31.0438 42.1917 30.8861 41.9479 30.8677 41.6092C30.8247 40.9505 30.8104 40.2911 30.8247 39.6311C30.624 39.6311 30.4233 39.6311 30.2227 39.6311C30.2227 39.4305 30.2227 39.2297 30.2227 39.0291C30.4233 39.0291 30.624 39.0291 30.8247 39.0291C30.8247 38.7711 30.8247 38.513 30.8247 38.255C31.0455 38.236 31.2462 38.1786 31.4267 38.083Z" fill="#FEFFFE"/>
<path opacity="0.855" fill-rule="evenodd" clip-rule="evenodd" d="M21.7946 38.9433C22.4785 38.8261 22.9946 39.0555 23.3427 39.6313C23.0881 40.0388 22.8301 40.0531 22.5687 39.6743C22.1659 39.4605 21.8792 39.5609 21.7086 39.9753C21.7179 40.0564 21.7465 40.128 21.7946 40.1904C22.095 40.3444 22.4103 40.459 22.7407 40.5344C23.3813 40.821 23.5675 41.2941 23.2997 41.9535C22.8091 42.4779 22.2214 42.6069 21.5366 42.3405C21.2618 42.1947 21.0612 41.9797 20.9346 41.6955C21.0676 41.5498 21.2253 41.4351 21.4076 41.3514C21.7307 41.8273 22.1464 41.942 22.6547 41.6955C22.763 41.5361 22.763 41.3784 22.6547 41.2224C22.3581 41.0567 22.0428 40.942 21.7086 40.8784C21.0681 40.5917 20.8818 40.1187 21.1496 39.4593C21.3314 39.2339 21.5464 39.0619 21.7946 38.9433Z" fill="#FEFFFE"/>
<path opacity="0.878" fill-rule="evenodd" clip-rule="evenodd" d="M40.4579 38.9431C41.0557 38.8509 41.5575 39.0229 41.963 39.4591C42.0055 39.3186 42.0198 39.1752 42.006 39.0291C42.2067 39.0291 42.4074 39.0291 42.608 39.0291C42.608 40.1472 42.608 41.2652 42.608 42.3833C42.4074 42.3833 42.2067 42.3833 42.006 42.3833C42.0651 41.8587 41.9504 41.8157 41.662 42.2543C40.6795 42.6817 39.9199 42.438 39.3828 41.5232C38.9845 40.3199 39.3428 39.4598 40.4579 38.9431ZM40.5439 39.6311C41.778 39.6175 42.1937 40.1909 41.791 41.3512C41.32 41.9202 40.7896 41.9919 40.1999 41.5662C39.6642 40.7993 39.7789 40.1543 40.5439 39.6311Z" fill="#FEFFFE"/>
<path opacity="0.9" fill-rule="evenodd" clip-rule="evenodd" d="M59.2929 38.9432C59.9504 38.851 60.452 39.0803 60.798 39.6312C60.9209 40.5418 60.9639 41.4593 60.927 42.3834C60.7264 42.3834 60.5257 42.3834 60.325 42.3834C60.3393 41.6661 60.325 40.9494 60.282 40.2332C60.0476 39.6008 59.6318 39.4431 59.0349 39.7602C58.9316 39.8379 58.8599 39.9382 58.8199 40.0612C58.7011 40.8294 58.6581 41.6035 58.6909 42.3834C58.4903 42.3834 58.2895 42.3834 58.0889 42.3834C58.0889 41.2653 58.0889 40.1472 58.0889 39.0292C58.2895 39.0292 58.4903 39.0292 58.6909 39.0292C58.6774 39.1473 58.6918 39.262 58.7339 39.3732C58.8891 39.1731 59.0755 39.0299 59.2929 38.9432Z" fill="#FEFFFE"/>
<path opacity="0.863" fill-rule="evenodd" clip-rule="evenodd" d="M69.3555 38.9432C69.8914 38.8878 70.3645 39.0311 70.7746 39.3732C70.8168 39.262 70.8311 39.1473 70.8176 39.0292C71.047 39.0292 71.2763 39.0292 71.5057 39.0292C71.5057 40.1473 71.5057 41.2654 71.5057 42.3834C71.2763 42.3834 71.047 42.3834 70.8176 42.3834C70.8311 42.2654 70.8168 42.1506 70.7746 42.0394C70.1371 42.5574 69.4635 42.6004 68.7535 42.1684C67.8905 41.2443 67.8618 40.2982 68.6675 39.3302C68.891 39.1759 69.1204 39.0469 69.3555 38.9432ZM69.4415 39.6313C70.4961 39.5537 70.9404 40.041 70.7746 41.0934C70.4284 41.8108 69.898 41.9971 69.1835 41.6524C68.7039 41.1489 68.6322 40.5899 68.9685 39.9753C69.1243 39.8483 69.282 39.7336 69.4415 39.6313Z" fill="#FEFFFE"/>
<path opacity="0.859" fill-rule="evenodd" clip-rule="evenodd" d="M148.223 41.5233C148.223 41.5807 148.223 41.6379 148.223 41.6953C147.533 42.5278 146.702 42.6855 145.729 42.1683C145.116 41.5133 144.959 40.7536 145.256 39.8892C145.824 38.9761 146.613 38.7324 147.621 39.1581C147.778 39.3158 147.937 39.4735 148.094 39.6312C148.152 39.9286 148.023 40.1006 147.707 40.1472C147.248 39.5916 146.702 39.4912 146.073 39.8462C145.679 40.3473 145.636 40.8776 145.944 41.4373C146.591 41.9349 147.18 41.8776 147.707 41.2653C147.881 41.3524 148.053 41.4384 148.223 41.5233Z" fill="#FEFFFE"/>
<path opacity="0.897" fill-rule="evenodd" clip-rule="evenodd" d="M10.8716 39.0293C11.0722 39.0293 11.2729 39.0293 11.4736 39.0293C11.4593 39.7752 11.4736 40.5206 11.5166 41.2654C11.7812 41.86 12.1969 41.989 12.7637 41.6525C12.867 41.5748 12.9387 41.4745 12.9787 41.3514C13.0945 40.5825 13.1375 39.8084 13.1077 39.0293C13.3084 39.0293 13.5091 39.0293 13.7097 39.0293C13.7097 40.1474 13.7097 41.2654 13.7097 42.3835C13.5091 42.3835 13.3084 42.3835 13.1077 42.3835C13.1191 41.9731 13.0045 41.9588 12.7637 42.3405C11.9049 42.6666 11.2885 42.4228 10.9146 41.6095C10.8716 40.7499 10.8573 39.8899 10.8716 39.0293Z" fill="#FEFFFE"/>
<path opacity="0.828" fill-rule="evenodd" clip-rule="evenodd" d="M50.0039 39.0293C50.2333 39.0293 50.4626 39.0293 50.692 39.0293C50.692 40.1474 50.692 41.2654 50.692 42.3835C50.4626 42.3835 50.2333 42.3835 50.0039 42.3835C50.0039 41.2654 50.0039 40.1474 50.0039 39.0293Z" fill="#FEFFFE"/>
<path opacity="0.86" fill-rule="evenodd" clip-rule="evenodd" d="M98.2537 43.6736C98.0534 43.6736 97.8521 43.6736 97.6517 43.6736C97.6517 43.4729 97.6517 43.2722 97.6517 43.0716C98.1256 43.0425 98.4412 42.7988 98.5978 42.3405C98.1282 41.2717 97.6689 40.1966 97.2217 39.1153C97.4513 39.0007 97.6801 39.0007 97.9097 39.1153C98.2391 39.8894 98.5694 40.6634 98.8988 41.4375C99.1972 40.6413 99.4699 39.8386 99.7158 39.0293C99.9455 39.0293 100.174 39.0293 100.404 39.0293C99.9661 40.4707 99.4363 41.8754 98.8128 43.2436C98.6434 43.4199 98.4576 43.5632 98.2537 43.6736Z" fill="#FEFFFE"/>
<path opacity="0.912" fill-rule="evenodd" clip-rule="evenodd" d="M137.214 39.0293C137.414 39.0293 137.616 39.0293 137.816 39.0293C137.816 40.1474 137.816 41.2654 137.816 42.3835C137.616 42.3835 137.414 42.3835 137.214 42.3835C137.214 41.2654 137.214 40.1474 137.214 39.0293Z" fill="#FEFFFE"/>
</g>
<defs>
<clipPath id="clip0_694_296">
<rect width="148.188" height="43.4328" fill="white" transform="translate(0.078125 0.283691)"/>
</clipPath>
</defs>
</svg>
