<svg width="195" height="60" viewBox="0 0 195 60" fill="none" xmlns="http://www.w3.org/2000/svg">
<path fillRule="evenodd" clipRule="evenodd" d="M66.8536 13.6172H61.5117V40.2204H66.8536V29.5713L76.0024 40.2204H83.0468L71.0805 26.7346L82.6771 13.6172H75.7816L66.8536 24.0453V13.6172ZM174.347 13.6172H195.002V18.5184H187.327V40.2204H182.022V18.5184H174.347V13.6172ZM167.816 13.6172H159.456L152.159 40.2204H157.648L159.191 34.3451H168.082L169.624 40.2204H175.113L167.816 13.6172ZM160.456 29.4071L163.636 17.3973L166.816 29.4071H160.456ZM132.592 13.6172H149.868V18.5184H137.934V24.3764H148.84V29.2776H137.934V35.3192H150.052V40.2204H132.592V13.6172ZM116.203 13.6172H106.962V40.2204H112.231V18.1293L118.119 40.2204H127.323V13.6172H122.055V35.5705L116.203 13.6172ZM85.4561 13.6172H102.732V18.5184H90.798V24.3764H101.704V29.2776H90.798V35.3192H102.916V40.2204H85.4561V13.6172Z" fill="white"/>
<path fillRule="evenodd" clipRule="evenodd" d="M48 0V24.1671L30.5125 31.8005V26.9504L43.8382 21.3078V5.98472L21.0877 14.4577V5.06987H4.16185V46.4571H25.2495V54.0153L43.8382 47.0923V33.4043L48 31.662V49.977L21.0877 60V50.6122H0V0.914848H25.2495V8.47299L48 0Z" fill="white"/>
</svg>
